#N canvas 2239 233 652 399 10;
#X obj 188 170 sendOSC;
#X msg 241 49 connect localhost 7000;
#X obj 317 120 dumpOSC 7001;
#X obj 332 161 print 7001 \$1;
#X obj 518 128 dumpOSC 7002;
#X obj 519 173 print 7002 \$1;
#X obj 477 259 dumpOSC 7004;
#X obj 472 295 print 7004 \$1;
#X obj 317 255 dumpOSC 7003;
#X obj 318 300 print 7003 \$1;
#X msg 28 63 send /tempo/2 45;
#X msg 43 97 send /tempo/3 70;
#X msg 28 147 send /tempo/4 105;
#X msg 124 295 send /state/5 7;
#X msg 46 28 send /tempo/1 90.1;
#X connect 1 0 0 0;
#X connect 2 0 3 0;
#X connect 4 0 5 0;
#X connect 6 0 7 0;
#X connect 8 0 9 0;
#X connect 10 0 0 0;
#X connect 11 0 0 0;
#X connect 12 0 0 0;
#X connect 13 0 0 0;
#X connect 14 0 0 0;
