#N canvas 1741 436 531 432 10;
#X obj -677 -601 t b b b;
#X msg -613 -558 1;
#X msg -543 -557 0;
#X obj -591 -495 line~;
#X obj -591 -452 cos~;
#X obj -591 -430 *~ -1;
#X obj -591 -408 +~ 1;
#X obj -591 -382 /~ 2;
#X obj -907 -346 *~;
#X obj -979 -433 line~;
#X obj -995 -476 pack 0 0;
#X obj -980 -645 metro 100;
#X obj -976 -307 outlet~;
#X obj -979 -391 vd~ \$1;
#X obj -980 -669 inlet;
#X text -984 -690 Start/Stop;
#X obj -876 -672 inlet;
#X text -904 -689 Grain Start Time;
#X msg -931 -487 \$1;
#X obj -992 -584 f;
#X obj -867 -652 loadbang;
#X msg -867 -633 300;
#X msg -995 -502 \$1;
#X obj -789 -671 inlet;
#X obj -935 -585 f;
#X obj -980 -621 t b b b;
#X text -791 -689 Pitch;
#X msg -968 -502 100;
#X obj -648 -661 inlet;
#X text -628 -685 Length;
#X obj -582 -559 f;
#X obj -601 -664 loadbang;
#X obj -600 -641 30;
#X obj -994 -529 t f f f;
#X obj -991 -555 pack \$2 \$3 \$4;
#X obj -613 -532 pack f f;
#X connect 0 0 1 0;
#X connect 0 1 30 0;
#X connect 0 2 2 0;
#X connect 1 0 35 0;
#X connect 2 0 3 0;
#X connect 3 0 4 0;
#X connect 4 0 5 0;
#X connect 5 0 6 0;
#X connect 6 0 7 0;
#X connect 7 0 8 1;
#X connect 8 0 12 0;
#X connect 9 0 13 0;
#X connect 10 0 9 0;
#X connect 11 0 25 0;
#X connect 13 0 8 0;
#X connect 14 0 11 0;
#X connect 16 0 19 1;
#X connect 18 0 9 0;
#X connect 19 0 34 0;
#X connect 20 0 21 0;
#X connect 21 0 19 1;
#X connect 21 0 24 1;
#X connect 22 0 10 0;
#X connect 23 0 24 1;
#X connect 24 0 34 2;
#X connect 25 0 19 0;
#X connect 25 1 24 0;
#X connect 25 2 0 0;
#X connect 27 0 10 1;
#X connect 28 0 30 1;
#X connect 30 0 34 1;
#X connect 30 0 35 1;
#X connect 31 0 32 0;
#X connect 32 0 30 1;
#X connect 33 0 22 0;
#X connect 33 1 27 0;
#X connect 33 2 18 0;
#X connect 34 0 33 0;
#X connect 35 0 3 0;
